<?xml version="1.0" encoding="utf-8"?>
<!-- Generator: Adobe Illustrator 26.3.1, SVG Export Plug-In . SVG Version: 6.00 Build 0)  -->
<svg version="1.1" id="Layer_1" xmlns="http://www.w3.org/2000/svg" xmlns:xlink="http://www.w3.org/1999/xlink" x="0px" y="0px"
	 viewBox="0 0 28.7 28.7" enable-background="new 0 0 28.7 28.7" xml:space="preserve">
<path fill="#FFFFFF" d="M22,5.4H6.7C6,5.4,5.4,6,5.4,6.7V22c0,0.7,0.6,1.3,1.3,1.3H22c0.7,0,1.3-0.6,1.3-1.3V6.7
	C23.4,6,22.8,5.4,22,5.4z M10.7,20.7H8v-8.6h2.7V20.7z M9.4,10.9c-0.9,0-1.6-0.7-1.6-1.6s0.7-1.6,1.6-1.6s1.6,0.7,1.6,1.6
	S10.2,10.9,9.4,10.9z M20.7,20.7H18V16c0-1.4-0.6-1.8-1.3-1.8c-0.8,0-1.6,0.6-1.6,1.8v4.7h-2.7v-8.6H15v1.2h0
	c0.3-0.5,1.2-1.4,2.6-1.4c1.5,0,3.1,0.9,3.1,3.5V20.7z"/>
<g>
</g>
<g>
</g>
<g>
</g>
<g>
</g>
<g>
</g>
<g>
</g>
</svg>
