<?xml version="1.0" encoding="utf-8"?>
<!-- Generator: Adobe Illustrator 26.3.1, SVG Export Plug-In . SVG Version: 6.00 Build 0)  -->
<svg version="1.1" id="Layer_1" xmlns="http://www.w3.org/2000/svg" xmlns:xlink="http://www.w3.org/1999/xlink" x="0px" y="0px"
	 viewBox="0 0 256.1 133.3" style="enable-background:new 0 0 256.1 133.3;" xml:space="preserve">
<style type="text/css">
	.st0{fill:#384EA1;}
	.st1{fill:none;stroke:#000000;stroke-width:0.75;stroke-miterlimit:10;}
	.st2{fill:#FFFFFF;}
	.st3{fill:#FFFFFF;stroke:#000000;stroke-width:3;stroke-miterlimit:10;}
</style>
<path d="M251.1,0h-78.7h0h-5h0H88.7h0h-5h0H5H0v5v124v5h5h78.7h0h5h0h78.7h0h5h0h78.7h5v-5V5V0H251.1z M83.7,129H5V5h78.7V129z
	 M167.4,129H88.7V5h78.7V129z M251.1,129h-78.7V5h78.7V129z"/>
<g>
	<path d="M48.4,33.6c0.9,2.9,2.7,7.8,4.8,13.4c5.6,15.8,13.8,37.3,15.6,41.8c3.6,8.9,5.3,9.8,10.2,11c1.7,0.5,2.6,1.1,2.6,1.8
		c0,0.8-0.8,1.4-3.5,1.4c-3.6,0-8.9-0.5-13.7-0.5c-3.5,0-5,0.2-7.7,0.2s-3.4-0.8-3.4-1.3c0-0.5,0.7-1.4,2.6-1.7
		c5.2-1.1,4.8-3.3,4.3-5.5c-0.9-4.4-3.6-11.6-6.1-18.5c-0.1-0.4-0.5-1.1-3.7-1.1c-6,0-15.5,0.1-17.8,0.4c-0.4,0-1,0.5-1.2,0.9
		c-2.8,7-5.6,16.3-5.6,19c0,1.3,0.4,3.1,5.3,4.7c1.8,0.5,2.9,1.2,2.9,2c0,1.1-1.6,1.4-3,1.4c-1.8,0-4.6-0.3-8.6-0.3
		s-9.7,0.5-11.3,0.5c-2,0-2.5-0.4-2.5-1.1c0-0.7,0.8-1.6,2.4-2.2c5.4-1.8,6.8-2.2,10-9.2C23.6,85,36,52.2,40.5,41.2
		c0.7-1.5,0.8-2.2,1-2.8c0.1-0.3,0.3-1,0.8-1.8c0.7-1.1,1.8-3.1,2.6-4.3c0.8-0.9,1.2-1.4,1.7-1.4C47.1,30.7,47.5,31.2,48.4,33.6z
		 M51.8,68.7c-1.8-5.5-7.5-21.8-8.5-23.3c-0.3-0.7-0.5-0.8-0.9,0c-2,5.2-7.6,20.4-8.5,23.7c-0.1,0.4,0.1,0.8,0.5,0.8
		c4.3-0.1,13.3,0,16.9-0.3C51.6,69.6,51.9,69,51.8,68.7z"/>
</g>
<g>
	<path d="M109.2,32.5c2.9,0,4.9,0.2,8,0.2c4.2,0,11.6-0.3,14.2-0.3c2,0,2.7,0.4,2.7,1.2s-0.9,1.4-2.5,1.8c-6.3,1.4-7,2.6-7.3,4.2
		c-0.7,4.9-0.7,15.8-0.7,31.9c0,8.5,0.3,18.9,0.8,22.4c0.2,1.5,2.8,4,3.7,4.1c2.8,0.4,6.8,0.5,10.4,0.5c3,0,6.1-0.1,7.7-0.3
		c0.9-0.1,2.2-0.1,4.3-2.1c1.5-1.5,3.3-3.1,6.2-7.3c1.2-2,2.2-2.4,2.7-2.4c0.5,0,0.9,1.2,0.4,2.9c-1.7,5.3-2.5,7.6-3.4,11.7
		c-0.1,1.2-2.2,1.8-2.6,1.8c-1.3,0-11.2-0.7-33.2-0.7c-7.4,0-12.5,0.5-14,0.5c-2.1,0-3.1-0.2-3.1-1.2c0-0.8,0.9-1.6,2.6-2
		c6-1.2,7.5-3.3,8-7.5c0.2-2.7,0.5-20,0.5-35.7c0-4.3,0-11.8-0.1-15.4c-0.1-2.4-0.7-4.4-5.7-5.4c-2.2-0.4-3-1.3-3-2.1
		S106.8,32.5,109.2,32.5z"/>
</g>
<g>
	<path d="M212,35c-1.2,0-2.3,0.4-3.1,1c-0.4,0.3-1,1.6-1.1,4.2c-0.1,2.3-0.1,15.7-0.2,28.2c0,9.9,0.2,18.9,0.2,21.6
		c0.1,7,1,7.9,6.5,9.5c2.1,0.5,2.9,1.1,2.9,2.1c0,1-2,1.3-3.6,1.3c-2.7,0-6.6-0.4-11.4-0.4c-3.1,0-7.6,0.4-11,0.4
		c-1.8,0-3-0.5-3-1.5c0-0.8,1.1-1.4,2.2-1.7c6.1-1.3,7.3-3.5,7.6-7.9c0.3-5.3,0.5-14.2,0.5-19.6c0-3.6-0.2-26.6-0.3-30
		c-0.1-3.9,0-5.4-6.1-6.3c-2.2-0.3-3.4-1-3.4-1.6c0-0.9,1.1-1.4,2.5-1.5c0.8-0.1,2.6,0,3.6,0c4.3,0,12.7-0.9,18.1-0.9
		c9.9,0,16.3,2.6,20.3,6.4c5.2,5,6.3,11.2,6.3,14.7c0,9.7-4.4,14.1-7.6,16.8c-2.8,2.4-7.8,4.8-12.5,4.8c-1.2,0-4-0.1-5.7-0.8
		c-1.3-0.5-1.8-1.1-1.8-1.7c0-0.4,0.4-1,1.3-1c1,0,2.2,0,2.7,0c5.7,0,13.8-5.1,13.8-17.6C229.6,43.5,222.1,35,212,35z"/>
</g>
</svg>
